<?xml version="1.0" encoding="utf-8"?>
<!-- Generator: Adobe Illustrator 16.0.0, SVG Export Plug-In . SVG Version: 6.00 Build 0)  -->
<!DOCTYPE svg PUBLIC "-//W3C//DTD SVG 1.1//EN" "http://www.w3.org/Graphics/SVG/1.1/DTD/svg11.dtd">
<svg version="1.1" id="Layer_1" xmlns="http://www.w3.org/2000/svg" xmlns:xlink="http://www.w3.org/1999/xlink" x="0px" y="0px"
	 width="128px" height="128px" viewBox="0 0 128 128" enable-background="new 0 0 128 128" xml:space="preserve">
<g>
	<g>
		<g>
			<path fill="#282D33" d="M123.043,25.106h-3.964v-7.462c0-0.647-0.515-1.175-1.146-1.175H10.021c-0.633,0-1.147,0.527-1.147,1.175
				v7.462H4.911v-7.462c0-2.833,2.293-5.138,5.111-5.138h107.912c2.817,0,5.109,2.305,5.109,5.138V25.106z"/>
		</g>
		<g>
			<polygon fill="#282D33" points="123.043,86.993 4.911,86.993 4.911,50.133 8.874,50.133 8.874,83.031 119.079,83.031 
				119.079,51.352 123.043,51.352 			"/>
		</g>
		<g>
			<polygon fill="#282D33" points="113.992,77.771 13.844,77.771 13.844,59.288 17.806,59.288 17.806,73.808 110.03,73.808 
				110.03,59.288 113.992,59.288 			"/>
		</g>
		<g>
			<path fill="#282D33" d="M118.22,100.579H10.565c-2.885,0-5.717-2.933-5.717-5.92V82.964h118.304v11.855
				C123.151,97.65,121.307,100.579,118.22,100.579z M8.811,86.927v7.732c0,0.864,1.088,1.957,1.754,1.957H118.22
				c0.546,0,0.968-0.965,0.968-1.797v-7.893H8.811z"/>
		</g>
		<g>
			<path fill="#282D33" d="M46.813,115.478l-1.585-3.632c1.209-0.528,2.217-1.004,2.764-1.304l0.159-0.089
				c0.213-0.119,0.479-0.267,0.544-0.327c0.017-0.03,0.151-0.294,0.374-1.423c0.273-1.395,0.24-3.919,0.211-6.145
				c-0.021-1.547-0.04-3.006,0.044-4.046l3.95,0.32c-0.07,0.854-0.052,2.224-0.033,3.672c0.034,2.539,0.068,5.162-0.285,6.962
				c-0.542,2.755-1.163,3.493-2.878,4.448l-0.162,0.09C49.016,114.502,47.586,115.141,46.813,115.478z"/>
		</g>
		<g>
			<path fill="#282D33" d="M81.062,115.493c-1.418-0.624-2.467-1.121-3.117-1.48l-0.111-0.063c-1.849-1.035-2.329-1.79-2.857-4.483
				c-0.354-1.801-0.32-4.388-0.287-6.89c0.019-1.42,0.036-2.763-0.031-3.614l3.949-0.316c0.084,1.035,0.065,2.468,0.045,3.983
				c-0.029,2.191-0.063,4.676,0.212,6.072c0.218,1.108,0.338,1.417,0.391,1.502c0.032,0.018,0.302,0.169,0.518,0.29l0.099,0.056
				c0.519,0.284,1.514,0.757,2.787,1.317L81.062,115.493z"/>
		</g>
		<g>
			<rect x="42.886" y="111.485" fill="#282D33" width="42.24" height="3.963"/>
		</g>
	</g>
	<g>
		<polygon fill="#282D33" points="2.754,39.125 0,36.275 15.097,21.681 112.903,21.681 128,36.275 125.244,39.125 111.302,25.644 
			16.699,25.644 		"/>
	</g>
	<g>
		<path fill="#282D33" d="M123.446,40.552v1.206c0,4.411-3.542,7.987-7.911,7.987c-3.354,0-6.212-2.105-7.366-5.071
			c-1.16,2.966-4.014,5.071-7.367,5.071c-3.351,0-6.208-2.104-7.366-5.069c-1.151,2.965-4.012,5.069-7.363,5.069
			c-3.353,0-6.207-2.105-7.365-5.071c-1.153,2.966-4.015,5.071-7.366,5.071c-3.35,0-6.207-2.105-7.362-5.071
			c-1.156,2.966-4.013,5.071-7.363,5.071c-3.351,0-6.212-2.104-7.365-5.069c-1.156,2.965-4.013,5.069-7.364,5.069
			c-3.353,0-6.212-2.105-7.368-5.071c-1.151,2.966-4.011,5.071-7.363,5.071c-3.354,0-6.21-2.105-7.363-5.071
			c-1.157,2.966-4.015,5.071-7.365,5.071c-4.373,0-7.917-3.575-7.917-7.987v-1.206H123.446 M127.387,36.613h-3.94H4.513H0.575v3.938
			v1.206c0,6.576,5.318,11.926,11.855,11.926c2.75,0,5.32-0.935,7.363-2.567c2.043,1.632,4.614,2.567,7.365,2.567
			c2.754,0,5.323-0.935,7.366-2.567c2.043,1.632,4.614,2.567,7.365,2.567s5.319-0.935,7.364-2.567
			c2.042,1.632,4.613,2.567,7.365,2.567c2.75,0,5.319-0.935,7.363-2.568c2.042,1.633,4.613,2.568,7.362,2.568
			c2.752,0,5.324-0.935,7.368-2.568c2.042,1.633,4.611,2.568,7.363,2.568c2.751,0,5.322-0.935,7.364-2.567
			c2.045,1.632,4.616,2.567,7.365,2.567c2.75,0,5.321-0.935,7.367-2.568c2.04,1.633,4.611,2.568,7.366,2.568
			c6.535,0,11.852-5.35,11.852-11.926v-1.206v-3.938H127.387z"/>
	</g>
</g>
</svg>
