<?xml version="1.0" encoding="utf-8"?>
<!-- Generator: Adobe Illustrator 16.0.0, SVG Export Plug-In . SVG Version: 6.00 Build 0)  -->
<!DOCTYPE svg PUBLIC "-//W3C//DTD SVG 1.1//EN" "http://www.w3.org/Graphics/SVG/1.1/DTD/svg11.dtd">
<svg version="1.1" id="Layer_1" xmlns="http://www.w3.org/2000/svg" xmlns:xlink="http://www.w3.org/1999/xlink" x="0px" y="0px"
	 width="128px" height="128px" viewBox="0 0 128 128" enable-background="new 0 0 128 128" xml:space="preserve">
<g>
	<g>
		<path fill="#282D33" d="M118.48,113.667H0V27.8h118.48V113.667z M4,109.667h110.48V31.8H4V109.667z"/>
	</g>
	<g>
		<polygon fill="#282D33" points="109.184,79.902 9.297,79.902 9.297,36.972 109.184,36.972 109.184,44.261 105.184,44.261 
			105.184,40.972 13.297,40.972 13.297,75.902 105.184,75.902 105.184,72.645 109.184,72.645 		"/>
	</g>
	<g>
		<path fill="#282D33" d="M35.061,88.773v11.931H12.91V88.773H35.061 M38.998,84.837H8.974v19.804h30.024V84.837L38.998,84.837z"/>
	</g>
	<g>
		<path fill="#282D33" d="M70.314,88.773v11.931H48.163V88.773H70.314 M74.252,84.837H44.227v19.804h30.025V84.837L74.252,84.837z"
			/>
	</g>
	<g>
		<path fill="#282D33" d="M105.57,88.773v11.931H83.418V88.773H105.57 M109.507,84.837H79.48v19.804h30.025L109.507,84.837
			L109.507,84.837z"/>
	</g>
	<g>
		<path fill="#282D33" d="M118.48,31.8H0V14.333h118.48V31.8z M4,27.8h110.48v-9.467H4V27.8z"/>
	</g>
	<g>
		<rect x="7.23" y="20.968" fill="#282D33" width="4.344" height="4"/>
	</g>
	<g>
		<rect x="14.75" y="20.968" fill="#282D33" width="4.348" height="4"/>
	</g>
	<g>
		<rect x="22.272" y="20.968" fill="#282D33" width="4.348" height="4"/>
	</g>
	<g>
		<g>
			<polygon fill="#282D33" points="37.667,68.239 35.557,68.239 15.782,58.196 35.557,48.151 37.67,48.151 37.67,52.151 
				36.515,52.151 24.615,58.196 36.515,64.239 37.667,64.239 			"/>
		</g>
		<g>
			<path fill="#282D33" d="M114.79,51.645v13.103H39.397l-0.001-13.103H114.79 M118.727,47.708H35.459l0.002,20.976h83.266V47.708
				L118.727,47.708z"/>
		</g>
		<g>
			<rect x="39.858" y="56.195" fill="#282D33" width="77.355" height="4"/>
		</g>
		<g>
			<path fill="#282D33" d="M124.552,68.318h-6.495v-4h5.937l0.004-12.247h-5.94v-4h6.495c1.899,0,3.445,1.701,3.445,3.792
				L128,64.536C127.994,66.659,126.479,68.318,124.552,68.318z"/>
		</g>
	</g>
</g>
</svg>
